<mxfile host="app.diagrams.net" modified="2022-10-02T16:12:04.317Z" agent="5.0 (Windows NT 10.0; Win64; x64) AppleWebKit/537.36 (KHTML, like Gecko) Chrome/106.0.0.0 Safari/537.36" etag="FKm8HCY7XfQPro94T1SH" version="20.4.0" type="github">
  <diagram id="YZ1FBNoXIo6I9_LNRTpu" name="Страница 1">
    <mxGraphModel dx="1422" dy="794" grid="1" gridSize="10" guides="1" tooltips="1" connect="1" arrows="1" fold="1" page="1" pageScale="1" pageWidth="827" pageHeight="1169" math="0" shadow="0">
      <root>
        <mxCell id="0" />
        <mxCell id="1" parent="0" />
        <mxCell id="2Cebsvnef0jbZdlJV9eC-1" value="Start" style="ellipse;whiteSpace=wrap;html=1;" vertex="1" parent="1">
          <mxGeometry x="64" y="130" width="120" height="40" as="geometry" />
        </mxCell>
        <mxCell id="2Cebsvnef0jbZdlJV9eC-2" value="Input a, b, c" style="shape=parallelogram;perimeter=parallelogramPerimeter;whiteSpace=wrap;html=1;fixedSize=1;" vertex="1" parent="1">
          <mxGeometry x="64" y="210" width="120" height="60" as="geometry" />
        </mxCell>
        <mxCell id="2Cebsvnef0jbZdlJV9eC-3" value="a &amp;gt; b ?" style="rhombus;whiteSpace=wrap;html=1;" vertex="1" parent="1">
          <mxGeometry x="84" y="310" width="80" height="80" as="geometry" />
        </mxCell>
        <mxCell id="2Cebsvnef0jbZdlJV9eC-4" value="a &amp;gt; c ?" style="rhombus;whiteSpace=wrap;html=1;" vertex="1" parent="1">
          <mxGeometry x="204" y="310" width="80" height="80" as="geometry" />
        </mxCell>
        <mxCell id="2Cebsvnef0jbZdlJV9eC-5" value="b &amp;gt; c?" style="rhombus;whiteSpace=wrap;html=1;" vertex="1" parent="1">
          <mxGeometry x="84" y="430" width="80" height="80" as="geometry" />
        </mxCell>
        <mxCell id="2Cebsvnef0jbZdlJV9eC-6" value="Variable &lt;b&gt;&lt;font style=&quot;font-size: 18px;&quot;&gt;a&lt;/font&gt;&lt;/b&gt; has the&amp;nbsp;largest value" style="shape=parallelogram;perimeter=parallelogramPerimeter;whiteSpace=wrap;html=1;fixedSize=1;" vertex="1" parent="1">
          <mxGeometry x="324" y="315" width="210" height="70" as="geometry" />
        </mxCell>
        <mxCell id="2Cebsvnef0jbZdlJV9eC-11" value="Variable &lt;span style=&quot;font-size: 18px;&quot;&gt;&lt;b&gt;c&lt;/b&gt;&lt;/span&gt;&amp;nbsp;has the&amp;nbsp;largest value" style="shape=parallelogram;perimeter=parallelogramPerimeter;whiteSpace=wrap;html=1;fixedSize=1;" vertex="1" parent="1">
          <mxGeometry x="324" y="435" width="210" height="70" as="geometry" />
        </mxCell>
        <mxCell id="2Cebsvnef0jbZdlJV9eC-12" value="Variable &lt;span style=&quot;font-size: 18px;&quot;&gt;&lt;b&gt;b&lt;/b&gt;&lt;/span&gt;&amp;nbsp;has the&amp;nbsp;largest value" style="shape=parallelogram;perimeter=parallelogramPerimeter;whiteSpace=wrap;html=1;fixedSize=1;" vertex="1" parent="1">
          <mxGeometry x="324" y="555" width="210" height="70" as="geometry" />
        </mxCell>
        <mxCell id="2Cebsvnef0jbZdlJV9eC-13" value="End" style="ellipse;whiteSpace=wrap;html=1;" vertex="1" parent="1">
          <mxGeometry x="644" y="450" width="120" height="40" as="geometry" />
        </mxCell>
        <mxCell id="2Cebsvnef0jbZdlJV9eC-14" value="" style="endArrow=classic;html=1;rounded=0;fontSize=18;exitX=0.5;exitY=1;exitDx=0;exitDy=0;" edge="1" parent="1" source="2Cebsvnef0jbZdlJV9eC-1">
          <mxGeometry width="50" height="50" relative="1" as="geometry">
            <mxPoint x="354" y="500" as="sourcePoint" />
            <mxPoint x="124" y="210" as="targetPoint" />
          </mxGeometry>
        </mxCell>
        <mxCell id="2Cebsvnef0jbZdlJV9eC-15" value="" style="endArrow=classic;html=1;rounded=0;fontSize=18;exitX=0.5;exitY=1;exitDx=0;exitDy=0;entryX=0.5;entryY=0;entryDx=0;entryDy=0;" edge="1" parent="1" source="2Cebsvnef0jbZdlJV9eC-2" target="2Cebsvnef0jbZdlJV9eC-3">
          <mxGeometry width="50" height="50" relative="1" as="geometry">
            <mxPoint x="54" y="640" as="sourcePoint" />
            <mxPoint x="124" y="320" as="targetPoint" />
          </mxGeometry>
        </mxCell>
        <mxCell id="2Cebsvnef0jbZdlJV9eC-16" value="" style="endArrow=classic;html=1;rounded=0;fontSize=18;exitX=1;exitY=0.5;exitDx=0;exitDy=0;entryX=0;entryY=0.5;entryDx=0;entryDy=0;" edge="1" parent="1" source="2Cebsvnef0jbZdlJV9eC-3" target="2Cebsvnef0jbZdlJV9eC-4">
          <mxGeometry width="50" height="50" relative="1" as="geometry">
            <mxPoint x="124" y="610" as="sourcePoint" />
            <mxPoint x="174" y="560" as="targetPoint" />
          </mxGeometry>
        </mxCell>
        <mxCell id="2Cebsvnef0jbZdlJV9eC-17" value="" style="endArrow=classic;html=1;rounded=0;fontSize=18;exitX=1;exitY=0.5;exitDx=0;exitDy=0;entryX=0;entryY=0.5;entryDx=0;entryDy=0;" edge="1" parent="1" source="2Cebsvnef0jbZdlJV9eC-4" target="2Cebsvnef0jbZdlJV9eC-6">
          <mxGeometry width="50" height="50" relative="1" as="geometry">
            <mxPoint x="214" y="570" as="sourcePoint" />
            <mxPoint x="264" y="520" as="targetPoint" />
          </mxGeometry>
        </mxCell>
        <mxCell id="2Cebsvnef0jbZdlJV9eC-18" value="" style="endArrow=none;html=1;rounded=0;fontSize=18;entryX=1;entryY=0.5;entryDx=0;entryDy=0;" edge="1" parent="1" target="2Cebsvnef0jbZdlJV9eC-6">
          <mxGeometry width="50" height="50" relative="1" as="geometry">
            <mxPoint x="604" y="350" as="sourcePoint" />
            <mxPoint x="404" y="450" as="targetPoint" />
          </mxGeometry>
        </mxCell>
        <mxCell id="2Cebsvnef0jbZdlJV9eC-19" value="" style="endArrow=none;html=1;rounded=0;fontSize=18;entryX=0.5;entryY=1;entryDx=0;entryDy=0;" edge="1" parent="1" target="2Cebsvnef0jbZdlJV9eC-4">
          <mxGeometry width="50" height="50" relative="1" as="geometry">
            <mxPoint x="244" y="470" as="sourcePoint" />
            <mxPoint x="224" y="560" as="targetPoint" />
          </mxGeometry>
        </mxCell>
        <mxCell id="2Cebsvnef0jbZdlJV9eC-20" value="" style="endArrow=classic;html=1;rounded=0;fontSize=18;exitX=1;exitY=0.5;exitDx=0;exitDy=0;entryX=0;entryY=0.5;entryDx=0;entryDy=0;" edge="1" parent="1" source="2Cebsvnef0jbZdlJV9eC-5" target="2Cebsvnef0jbZdlJV9eC-11">
          <mxGeometry width="50" height="50" relative="1" as="geometry">
            <mxPoint x="194" y="640" as="sourcePoint" />
            <mxPoint x="344" y="470" as="targetPoint" />
          </mxGeometry>
        </mxCell>
        <mxCell id="2Cebsvnef0jbZdlJV9eC-21" value="" style="endArrow=none;html=1;rounded=0;fontSize=18;entryX=0.5;entryY=1;entryDx=0;entryDy=0;" edge="1" parent="1" target="2Cebsvnef0jbZdlJV9eC-5">
          <mxGeometry width="50" height="50" relative="1" as="geometry">
            <mxPoint x="124" y="590" as="sourcePoint" />
            <mxPoint x="154" y="630" as="targetPoint" />
          </mxGeometry>
        </mxCell>
        <mxCell id="2Cebsvnef0jbZdlJV9eC-22" value="" style="endArrow=classic;html=1;rounded=0;fontSize=18;entryX=0;entryY=0.5;entryDx=0;entryDy=0;" edge="1" parent="1" target="2Cebsvnef0jbZdlJV9eC-12">
          <mxGeometry width="50" height="50" relative="1" as="geometry">
            <mxPoint x="124" y="590" as="sourcePoint" />
            <mxPoint x="194" y="660" as="targetPoint" />
          </mxGeometry>
        </mxCell>
        <mxCell id="2Cebsvnef0jbZdlJV9eC-23" value="" style="endArrow=classic;html=1;rounded=0;fontSize=18;exitX=0.5;exitY=1;exitDx=0;exitDy=0;entryX=0.5;entryY=0;entryDx=0;entryDy=0;" edge="1" parent="1" source="2Cebsvnef0jbZdlJV9eC-3" target="2Cebsvnef0jbZdlJV9eC-5">
          <mxGeometry width="50" height="50" relative="1" as="geometry">
            <mxPoint x="84" y="690" as="sourcePoint" />
            <mxPoint x="134" y="640" as="targetPoint" />
          </mxGeometry>
        </mxCell>
        <mxCell id="2Cebsvnef0jbZdlJV9eC-24" value="" style="endArrow=none;html=1;rounded=0;fontSize=18;exitX=1;exitY=0.5;exitDx=0;exitDy=0;" edge="1" parent="1" source="2Cebsvnef0jbZdlJV9eC-12">
          <mxGeometry width="50" height="50" relative="1" as="geometry">
            <mxPoint x="624" y="660" as="sourcePoint" />
            <mxPoint x="604" y="590" as="targetPoint" />
          </mxGeometry>
        </mxCell>
        <mxCell id="2Cebsvnef0jbZdlJV9eC-26" value="" style="endArrow=none;html=1;rounded=0;fontSize=18;" edge="1" parent="1">
          <mxGeometry width="50" height="50" relative="1" as="geometry">
            <mxPoint x="604" y="590" as="sourcePoint" />
            <mxPoint x="604" y="350" as="targetPoint" />
          </mxGeometry>
        </mxCell>
        <mxCell id="2Cebsvnef0jbZdlJV9eC-27" value="" style="endArrow=classic;html=1;rounded=0;fontSize=18;exitX=1;exitY=0.5;exitDx=0;exitDy=0;entryX=0;entryY=0.5;entryDx=0;entryDy=0;" edge="1" parent="1" source="2Cebsvnef0jbZdlJV9eC-11" target="2Cebsvnef0jbZdlJV9eC-13">
          <mxGeometry width="50" height="50" relative="1" as="geometry">
            <mxPoint x="354" y="500" as="sourcePoint" />
            <mxPoint x="404" y="450" as="targetPoint" />
          </mxGeometry>
        </mxCell>
        <mxCell id="2Cebsvnef0jbZdlJV9eC-28" value="&lt;b&gt;&lt;font style=&quot;font-size: 14px;&quot;&gt;Yes&lt;/font&gt;&lt;/b&gt;" style="text;html=1;strokeColor=none;fillColor=none;align=center;verticalAlign=middle;whiteSpace=wrap;rounded=0;fontSize=18;" vertex="1" parent="1">
          <mxGeometry x="154" y="315" width="50" height="20" as="geometry" />
        </mxCell>
        <mxCell id="2Cebsvnef0jbZdlJV9eC-30" value="&lt;b&gt;&lt;font style=&quot;font-size: 14px;&quot;&gt;Yes&lt;/font&gt;&lt;/b&gt;" style="text;html=1;strokeColor=none;fillColor=none;align=center;verticalAlign=middle;whiteSpace=wrap;rounded=0;fontSize=18;" vertex="1" parent="1">
          <mxGeometry x="124" y="530" width="50" height="20" as="geometry" />
        </mxCell>
        <mxCell id="2Cebsvnef0jbZdlJV9eC-31" value="&lt;b&gt;&lt;font style=&quot;font-size: 14px;&quot;&gt;No&lt;/font&gt;&lt;/b&gt;" style="text;html=1;strokeColor=none;fillColor=none;align=center;verticalAlign=middle;whiteSpace=wrap;rounded=0;fontSize=18;" vertex="1" parent="1">
          <mxGeometry x="129" y="400" width="40" height="20" as="geometry" />
        </mxCell>
        <mxCell id="2Cebsvnef0jbZdlJV9eC-32" value="&lt;b&gt;&lt;font style=&quot;font-size: 14px;&quot;&gt;No&lt;/font&gt;&lt;/b&gt;" style="text;html=1;strokeColor=none;fillColor=none;align=center;verticalAlign=middle;whiteSpace=wrap;rounded=0;fontSize=18;" vertex="1" parent="1">
          <mxGeometry x="169" y="440" width="40" height="20" as="geometry" />
        </mxCell>
        <mxCell id="2Cebsvnef0jbZdlJV9eC-33" value="&lt;b&gt;&lt;font style=&quot;font-size: 14px;&quot;&gt;No&lt;/font&gt;&lt;/b&gt;" style="text;html=1;strokeColor=none;fillColor=none;align=center;verticalAlign=middle;whiteSpace=wrap;rounded=0;fontSize=18;" vertex="1" parent="1">
          <mxGeometry x="250" y="400" width="40" height="20" as="geometry" />
        </mxCell>
        <mxCell id="2Cebsvnef0jbZdlJV9eC-34" value="&lt;font style=&quot;font-size: 24px;&quot;&gt;The Algorithm for finding the largest value among three variables&lt;/font&gt;" style="text;html=1;strokeColor=none;fillColor=none;align=center;verticalAlign=middle;whiteSpace=wrap;rounded=0;fontSize=14;" vertex="1" parent="1">
          <mxGeometry x="40" y="40" width="740" height="30" as="geometry" />
        </mxCell>
      </root>
    </mxGraphModel>
  </diagram>
</mxfile>
